<svg width="18" height="17" viewBox="0 0 18 17" fill="none" xmlns="http://www.w3.org/2000/svg">
<g clip-path="url(#clip0)">
<path fill-rule="evenodd" clip-rule="evenodd" d="M16.4782 6.89295C16.4173 6.95955 16.3451 7.01231 16.2657 7.04821C16.1863 7.0841 16.1012 7.10243 16.0153 7.10214C15.9295 7.10185 15.8445 7.08294 15.7653 7.04651C15.6862 7.01008 15.6143 6.95683 15.5539 6.88982L12.1124 3.08032L8.6451 6.86639C8.58419 6.93289 8.51196 6.98555 8.43254 7.02138C8.35312 7.05721 8.26807 7.0755 8.18224 7.07521C8.09641 7.07492 8.01148 7.05605 7.93231 7.01968C7.85313 6.98332 7.78126 6.93016 7.7208 6.86326C7.66033 6.79636 7.61246 6.71701 7.57991 6.62975C7.54736 6.5425 7.53077 6.44904 7.53109 6.35471C7.53141 6.26038 7.54863 6.16704 7.58177 6.08C7.61491 5.99297 7.66333 5.91395 7.72424 5.84746L11.6554 1.55649C11.7162 1.48989 11.7885 1.43713 11.8679 1.40123C11.9473 1.36533 12.0324 1.34701 12.1182 1.3473C12.2041 1.34759 12.2891 1.36649 12.3682 1.40293C12.4474 1.43936 12.5193 1.49261 12.5797 1.55962L16.4816 5.87715C16.5422 5.94399 16.5902 6.02332 16.6228 6.11058C16.6554 6.19785 16.672 6.29134 16.6717 6.3857C16.6714 6.48006 16.6541 6.57343 16.6209 6.66048C16.5877 6.74752 16.5392 6.82652 16.4782 6.89295Z" fill="white"/>
<path fill-rule="evenodd" clip-rule="evenodd" d="M12.1158 2.06602C12.2889 2.06661 12.4547 2.14275 12.5767 2.2777C12.6986 2.41265 12.7668 2.59535 12.7661 2.78561L12.7345 12.1115C12.7313 13.0628 12.3843 13.9739 11.77 14.6445C11.1556 15.3151 10.3242 15.6902 9.45856 15.6873L2.27822 15.6629C2.1051 15.6624 1.93932 15.5862 1.81736 15.4513C1.6954 15.3163 1.62725 15.1336 1.6279 14.9434C1.62854 14.7531 1.69793 14.5709 1.8208 14.4367C1.94367 14.3026 2.10996 14.2276 2.28309 14.2282L9.46342 14.2525C9.98279 14.2543 10.4817 14.0292 10.8503 13.6269C11.2189 13.2245 11.4271 12.6778 11.429 12.1071L11.4606 2.78119C11.4613 2.59093 11.5306 2.40869 11.6535 2.27457C11.7764 2.14046 11.9427 2.06544 12.1158 2.06602Z" fill="white"/>
</g>
<defs>
<clipPath id="clip0">
<rect width="16.0508" height="15.0542" fill="white" transform="matrix(-0.999994 -0.00339012 -0.00339012 0.999994 17.0508 1.00024)"/>
</clipPath>
</defs>
</svg>
