<svg width="29" height="24" viewBox="0 0 29 24" fill="none" xmlns="http://www.w3.org/2000/svg">
<path d="M27.7475 4.32486C27.5902 3.6487 27.2828 3.03207 26.8559 2.53633C26.429 2.04059 25.8975 1.68304 25.3142 1.49926C23.1517 0.811261 14.5 0.800061 14.5 0.800061C14.5 0.800061 5.84972 0.788861 3.68576 1.44646C3.1029 1.6387 2.57247 2.0013 2.1454 2.49948C1.71833 2.99765 1.40897 3.61465 1.247 4.29126C0.676669 6.79686 0.671145 11.9937 0.671145 11.9937C0.671145 11.9937 0.665621 17.2161 1.23181 19.6961C1.54943 21.0673 2.48157 22.1505 3.66643 22.5201C5.8511 23.2081 14.4793 23.2193 14.4793 23.2193C14.4793 23.2193 23.131 23.2305 25.2935 22.5745C25.877 22.391 26.409 22.0343 26.837 21.5396C27.2649 21.0448 27.574 20.4292 27.7337 19.7537C28.3054 17.2497 28.3095 12.0545 28.3095 12.0545C28.3095 12.0545 28.3371 6.83046 27.7475 4.32486ZM11.7326 16.8081L11.7395 7.20806L18.9301 12.0161L11.7326 16.8081Z" fill="#E6E5E5" fill-opacity="0.8"/>
</svg>
