<svg width="24" height="24" viewBox="0 0 24 24" fill="none" xmlns="http://www.w3.org/2000/svg">
<path d="M12 5.84695C15.405 5.84695 18.153 8.59495 18.153 11.9999C18.153 15.4049 15.405 18.1529 12 18.1529C8.59499 18.1529 5.84699 15.4049 5.84699 11.9999C5.84699 8.59495 8.59499 5.84695 12 5.84695ZM12 15.9989C14.202 15.9989 15.999 14.2019 15.999 11.9999C15.999 9.79795 14.202 8.00095 12 8.00095C9.79799 8.00095 8.00099 9.79795 8.00099 11.9999C8.00099 14.2019 9.79799 15.9989 12 15.9989ZM5.59499 4.16095C6.38999 4.16095 7.03199 4.80295 7.03199 5.59795C7.03199 6.39295 6.38999 7.03495 5.59499 7.03495C4.79999 7.03495 4.15799 6.39595 4.15799 5.59795C4.15775 5.40917 4.19476 5.2222 4.26689 5.04775C4.33903 4.8733 4.44487 4.71479 4.57835 4.58131C4.71184 4.44782 4.87034 4.34198 5.04479 4.26985C5.21925 4.19772 5.40622 4.16071 5.59499 4.16095ZM0.00598907 11.9999C0.00598907 10.3439 -0.00901222 8.70295 0.0839882 7.04995C0.176989 5.12995 0.614988 3.42595 2.01899 2.02195C3.42599 0.614949 5.12699 0.179949 7.04699 0.0869489C8.70299 -0.00605107 10.344 0.00894897 11.997 0.00894897C13.653 0.00894897 15.294 -0.00605107 16.947 0.0869489C18.867 0.179949 20.571 0.617949 21.975 2.02195C23.382 3.42895 23.817 5.12995 23.91 7.04995C24.003 8.70595 23.988 10.3469 23.988 11.9999C23.988 13.6529 24.003 15.2969 23.91 16.9499C23.817 18.8699 23.379 20.5739 21.975 21.9779C20.568 23.3849 18.867 23.8199 16.947 23.9129C15.291 24.0059 13.65 23.9909 11.997 23.9909C10.341 23.9909 8.69999 24.0059 7.04699 23.9129C5.12699 23.8199 3.42299 23.3819 2.01899 21.9779C0.611988 20.5709 0.176989 18.8699 0.0839882 16.9499C-0.0120106 15.2969 0.00598907 13.6559 0.00598907 11.9999ZM2.64599 19.0739C2.86499 19.6199 3.12899 20.0279 3.55199 20.4479C3.97499 20.8709 4.37999 21.1349 4.92599 21.3539C6.50399 21.9809 10.251 21.8399 12 21.8399C13.749 21.8399 17.499 21.9809 19.077 21.3569C19.623 21.1379 20.031 20.8739 20.451 20.4509C20.874 20.0279 21.138 19.6229 21.357 19.0769C21.981 17.4959 21.84 13.7489 21.84 11.9999C21.84 10.2509 21.981 6.50095 21.357 4.92295C21.138 4.37695 20.874 3.96895 20.451 3.54895C20.028 3.12895 19.623 2.86195 19.077 2.64295C17.499 2.01895 13.749 2.15995 12 2.15995C10.251 2.15995 6.50099 2.01895 4.92299 2.64295C4.37699 2.86195 3.96899 3.12595 3.54899 3.54895C3.12599 3.97195 2.86199 4.37695 2.64299 4.92295C2.01899 6.50095 2.15999 10.2509 2.15999 11.9999C2.15999 13.7489 2.01899 17.4959 2.64599 19.0739Z" fill="#E6E5E5" fill-opacity="0.8"/>
</svg>
