<svg width="24" height="24" viewBox="0 0 24 24" fill="none" xmlns="http://www.w3.org/2000/svg">
<path d="M2.87785 5.75618C4.44877 5.75618 5.72225 4.4827 5.72225 2.91178C5.72225 1.34086 4.44877 0.0673828 2.87785 0.0673828C1.30693 0.0673828 0.0334473 1.34086 0.0334473 2.91178C0.0334473 4.4827 1.30693 5.75618 2.87785 5.75618Z" fill="#E6E5E5" fill-opacity="0.8"/>
<path d="M8.40806 7.91148V23.6922H13.3078V15.8883C13.3078 13.8291 13.6952 11.8349 16.2484 11.8349C18.7665 11.8349 18.7977 14.1892 18.7977 16.0183V23.6935H23.7V15.0394C23.7 10.7884 22.7848 7.52148 17.8162 7.52148C15.4307 7.52148 13.8317 8.83058 13.1778 10.0695H13.1115V7.91148H8.40806ZM0.423462 7.91148H5.33096V23.6922H0.423462V7.91148Z" fill="#E6E5E5" fill-opacity="0.8"/>
</svg>
