<svg width="24" height="24" viewBox="0 0 24 24" fill="none" xmlns="http://www.w3.org/2000/svg">
<path d="M11.9893 0.00903423C5.36518 0.00628194 0 5.51637 0 12.3173C0 17.6953 3.35625 22.2668 8.03036 23.9457C8.65982 24.1081 8.56339 23.6485 8.56339 23.3347V21.2017C4.92857 21.6393 4.78125 19.1677 4.5375 18.7549C4.04464 17.8907 2.87946 17.6705 3.22768 17.2577C4.05536 16.82 4.89911 17.3677 5.87679 18.8512C6.58393 19.9274 7.96339 19.7457 8.6625 19.5668C8.81518 18.92 9.14196 18.3421 9.59196 17.8934C5.82589 17.1999 4.25625 14.8384 4.25625 12.0311C4.25625 10.6687 4.69286 9.41637 5.55 8.40628C5.00357 6.74114 5.60089 5.31546 5.68125 5.10353C7.2375 4.96041 8.85536 6.24848 8.98125 6.35032C9.86518 6.10536 10.875 5.97601 12.0054 5.97601C13.1411 5.97601 14.1536 6.11087 15.0455 6.35857C15.3482 6.12188 16.8482 5.01546 18.2946 5.15032C18.3723 5.36225 18.9562 6.75491 18.442 8.39802C19.3098 9.41087 19.7518 10.6742 19.7518 12.0393C19.7518 14.8522 18.1714 17.2164 14.3946 17.8989C14.7181 18.2258 14.975 18.6157 15.1502 19.0457C15.3254 19.4757 15.4155 19.9373 15.4152 20.4035V23.4999C15.4366 23.7476 15.4152 23.9925 15.817 23.9925C20.5607 22.3494 23.9759 17.7448 23.9759 12.32C23.9759 5.51637 18.608 0.00903423 11.9893 0.00903423Z" fill="#E6E5E5" fill-opacity="0.8"/>
</svg>
