<svg width="32" height="27" viewBox="0 0 32 27" fill="none" xmlns="http://www.w3.org/2000/svg">
<path d="M24.5333 25.961L23.8379 26.7482C24.0405 26.9172 24.3008 27.0061 24.5675 26.9974L24.5333 25.961ZM22.2592 22.4054C22.0838 22.1892 21.8274 22.0497 21.5463 22.0176C21.2653 21.9855 20.9826 22.0634 20.7605 22.2341C20.5385 22.4049 20.3952 22.6545 20.3621 22.9281C20.3291 23.2017 20.4091 23.4769 20.5845 23.6931L22.2592 22.4054ZM23.1083 21.5539L22.7371 20.582C22.7228 20.5866 22.7085 20.5914 22.6944 20.5965L23.1083 21.5539ZM19.4005 22.6256L19.2213 21.5996L19.2043 21.6017L19.4005 22.6235V22.6256ZM12.7787 22.6007L12.576 23.6183L12.5824 23.6204L12.7787 22.6007ZM9.01974 21.5311L8.63147 22.4968L9.01974 21.529V21.5311ZM7.15307 20.6837L6.56001 21.5456C6.58283 21.5611 6.60632 21.5757 6.63041 21.5892L7.15307 20.6837ZM6.92267 20.5591L7.51361 19.6951C7.47665 19.6713 7.43817 19.6498 7.39841 19.6308L6.92267 20.5591ZM6.82028 20.4843L7.57334 19.7491C7.50363 19.6814 7.42466 19.6234 7.33867 19.5768L6.82028 20.4843ZM11.4155 23.6412C11.5909 23.425 11.6709 23.1498 11.6379 22.8762C11.6048 22.6026 11.4615 22.3529 11.2395 22.1822C11.0174 22.0114 10.7347 21.9336 10.4537 21.9657C10.1726 21.9978 9.9162 22.1373 9.74081 22.3535L11.4155 23.6412ZM7.46667 25.961L7.43254 26.9995C7.70426 27.0079 7.96905 26.9151 8.17281 26.7399L7.46667 25.961ZM1.06668 21.2819H1.58479e-05C-0.000295632 21.3375 0.0039848 21.3931 0.0128158 21.448L1.06668 21.2819ZM4.74881 3.65344L4.10881 2.8227C3.94595 2.94194 3.82158 3.1041 3.75041 3.28999L4.74881 3.65344ZM11.9339 1.03867L12.9963 0.941059C12.9717 0.687495 12.8523 0.451549 12.6608 0.278086C12.4692 0.104622 12.2189 0.00573978 11.9573 0.000240031L11.936 1.03867H11.9339ZM11.1275 3.75106C11.1543 4.02536 11.2921 4.27804 11.5103 4.45351C11.7285 4.62897 12.0094 4.71285 12.2912 4.68668C12.573 4.66052 12.8325 4.52646 13.0128 4.31399C13.193 4.10153 13.2791 3.82806 13.2523 3.55375L11.1275 3.75106ZM18.6496 3.62021C18.6137 3.89342 18.6907 4.16933 18.8637 4.38725C19.0368 4.60517 19.2916 4.74724 19.5723 4.78222C19.8529 4.8172 20.1363 4.74221 20.3602 4.57376C20.584 4.4053 20.7299 4.15718 20.7659 3.88398L18.6496 3.62021ZM20.0661 1.03867L20.0427 0.000240031C19.7874 0.00565925 19.5427 0.100015 19.3528 0.266169C19.163 0.432323 19.0406 0.659256 19.008 0.905753L20.0661 1.03867ZM27.2512 3.65344L28.2496 3.28999C28.1784 3.1041 28.0541 2.94194 27.8912 2.8227L27.2512 3.65344ZM30.9333 21.2819L31.9872 21.448C31.996 21.3931 32.0003 21.3375 32 21.2819H30.9333ZM13.8261 16.1998L12.7595 16.1832V16.1998H13.8261ZM24.5333 25.961L25.2288 25.1739L25.2245 25.1698C25.1923 25.1446 25.1609 25.1182 25.1307 25.0908C24.7438 24.7648 24.3626 24.4325 23.9872 24.0939C23.2939 23.475 22.5792 22.8021 22.2592 22.4054L20.5845 23.6931C21.0283 24.2414 21.8709 25.0223 22.5429 25.6246C22.9594 25.9971 23.3812 26.364 23.808 26.7253L23.8293 26.7419L23.8357 26.7461L24.5333 25.961ZM25.4635 19.2195C24.4821 19.8488 23.5563 20.285 22.7371 20.582L23.4795 22.528C24.5897 22.1212 25.6489 21.593 26.6368 20.9537L25.4635 19.2195ZM22.6965 20.5965C21.5817 21.0606 20.4156 21.3979 19.2213 21.6017L19.5797 23.6495C20.9344 23.4188 22.2573 23.0369 23.5221 22.5114L22.6965 20.5965ZM19.2043 21.6038C17.1443 21.9726 15.0317 21.9642 12.9749 21.5789L12.5824 23.6204C14.8986 24.053 17.2774 24.0614 19.5968 23.6453L19.2043 21.6038ZM12.9813 21.5809C11.7609 21.3484 10.5648 21.0077 9.40801 20.5633L8.63147 22.4968C9.72374 22.9122 11.0421 23.3317 12.576 23.6183L12.9813 21.5809ZM9.40801 20.5633C8.8121 20.3405 8.2326 20.0782 7.67361 19.7782L6.63041 21.5892C7.32587 21.9693 8.01281 22.2621 8.63147 22.4968L9.40801 20.5633ZM7.74401 19.8198C7.64374 19.7533 7.54561 19.7076 7.51361 19.6931C7.47094 19.6723 7.49014 19.6785 7.51361 19.6951L6.32961 21.4231C6.43201 21.4895 6.52801 21.5352 6.56001 21.5498C6.60481 21.5705 6.58561 21.5643 6.56001 21.5456L7.74614 19.8218L7.74401 19.8198ZM7.39841 19.6308C7.44107 19.6515 7.48374 19.6764 7.52641 19.7097C7.56267 19.7388 7.59041 19.7637 7.57334 19.7512L6.06508 21.2196C6.11414 21.2673 6.23788 21.3857 6.44481 21.4895L7.39841 19.6308ZM7.33867 19.5768C7.13547 19.4672 6.93624 19.3509 6.74134 19.2278L6.71788 19.2112C6.71716 19.2112 6.71645 19.2112 6.71574 19.2112L6.10348 20.0627L5.49334 20.9122L5.49548 20.9143L5.49974 20.9184L5.51468 20.9267L5.55948 20.9558L5.71948 21.0576C5.85601 21.1406 6.05228 21.2569 6.30188 21.3919L7.33867 19.5768ZM9.74081 22.3556C9.41654 22.7564 8.69761 23.446 8.00641 24.0773C7.62803 24.4217 7.24542 24.7616 6.85868 25.0971L6.78614 25.1614L6.76481 25.1781L6.76268 25.1822H6.76054L7.46667 25.961L8.17281 26.7399L8.17494 26.7378L8.18134 26.7336L8.20267 26.7149L8.27947 26.6485C8.6777 26.3006 9.07239 25.9489 9.46347 25.5934C10.1355 24.9787 10.9739 24.1874 11.4155 23.6412L9.74081 22.3535V22.3556ZM7.50081 24.9226C5.01334 24.8458 3.70775 23.8406 2.99948 22.9288C2.60553 22.4196 2.31582 21.8415 2.14615 21.2258C2.13586 21.1873 2.12662 21.1485 2.11841 21.1095V21.1136L1.06668 21.2798C0.0128159 21.4459 0.0128158 21.4459 0.0149492 21.448V21.4605C0.0305507 21.5493 0.0504843 21.6373 0.0746824 21.7242C0.313796 22.6129 0.729049 23.4476 1.29708 24.1812C2.37441 25.5664 4.26881 26.9019 7.43254 26.9995L7.50081 24.9226ZM2.13335 21.2819C2.13335 17.4044 3.02935 13.099 3.94028 9.72619C4.42361 7.93988 4.97582 6.17191 5.59574 4.42604C5.64259 4.29699 5.69024 4.16823 5.73868 4.03974L5.74721 4.01897V4.01689L4.74881 3.65344L3.74828 3.28999V3.29207L3.74615 3.2983L3.73761 3.32115C3.6848 3.45903 3.6336 3.5975 3.58401 3.73652C2.94482 5.53501 2.37553 7.35633 1.87735 9.19659C0.945082 12.6338 1.58479e-05 17.1406 1.58479e-05 21.2819H2.13335ZM5.38881 4.48419C7.09547 3.23807 8.75307 2.63578 9.97547 2.34502C10.5774 2.20215 11.1915 2.11316 11.8101 2.07918C11.845 2.07793 11.8798 2.07723 11.9147 2.0771H11.9125L11.9339 1.03867L11.9552 0.000240031H11.9467C11.9268 -8.00104e-05 11.9068 -8.00104e-05 11.8869 0.000240031H11.7419C11.5709 0.00628346 11.4002 0.0173652 11.2299 0.0334699C10.6367 0.0894254 10.0485 0.187296 9.46987 0.326308C7.5282 0.795778 5.70445 1.6436 4.10881 2.81854L5.38881 4.48004V4.48419ZM10.8715 1.13628L11.1275 3.75106L13.2523 3.55375L12.9963 0.941059L10.8715 1.13628ZM20.7659 3.88398L21.1243 1.17159L19.008 0.905753L18.6496 3.62021L20.7659 3.88398ZM20.0661 1.03867L20.0875 2.0771H20.0853C20.1202 2.07543 20.155 2.07543 20.1899 2.0771C20.2709 2.08126 20.4032 2.08749 20.5717 2.1041C20.9131 2.13318 21.4123 2.20172 22.0245 2.3471C23.2469 2.63786 24.9045 3.23807 26.6112 4.48419L27.8912 2.8227C26.2956 1.6477 24.4718 0.799877 22.5301 0.330461C21.9516 0.190729 21.3634 0.0921632 20.7701 0.0355466C20.5311 0.0138888 20.2912 0.00210944 20.0512 0.000240031H20.0469H20.0448L20.0661 1.03867ZM27.2512 3.65344L26.2507 4.01482L26.2528 4.02105L26.2613 4.03974L26.2891 4.11658L26.4021 4.42604C27.0227 6.1719 27.5756 7.93987 28.0597 9.72619C28.9728 13.099 29.8667 17.4044 29.8667 21.2819H32C32 17.1406 31.0528 12.6338 30.1227 9.19659C29.6243 7.35636 29.055 5.53505 28.416 3.73652C28.3761 3.62692 28.3355 3.51754 28.2944 3.40837L28.2624 3.32115L28.2539 3.30038L28.2517 3.29207L27.2491 3.65344H27.2512ZM30.9333 21.2819L29.8816 21.1157V21.1136V21.1116V21.1095L29.8773 21.1261L29.856 21.2237C29.8304 21.3172 29.792 21.4584 29.7259 21.6329C29.5936 21.9859 29.3696 22.4553 29.0005 22.9288C28.2923 23.8406 26.9867 24.8458 24.4992 24.9226L24.5675 26.9995C27.7312 26.9019 29.6235 25.5664 30.7029 24.1832C31.2712 23.449 31.6864 22.6136 31.9253 21.7242C31.9463 21.6431 31.9648 21.5614 31.9808 21.4792L31.985 21.4584V21.4522V21.4501C31.985 21.448 31.985 21.4459 30.9333 21.2819ZM11.2192 12.3991C9.08161 12.3991 7.54347 14.1998 7.54347 16.1998H9.67681C9.67681 15.1655 10.4384 14.476 11.2192 14.476V12.3991ZM7.54347 16.1998C7.54347 18.2081 9.11361 20.0004 11.2192 20.0004V17.9236C10.4576 17.9236 9.67681 17.2299 9.67681 16.1998H7.54347ZM11.2192 20.0004C13.3525 20.0004 14.8928 18.2019 14.8928 16.1998H12.7595C12.7595 17.2382 11.9979 17.9236 11.2192 17.9236V20.0004ZM14.8907 16.2205C14.9248 14.1894 13.3376 12.3991 11.2171 12.3991V14.4781C12.0107 14.4781 12.7744 15.18 12.7573 16.1852L14.8907 16.2205ZM20.5504 12.3991C18.4128 12.4012 16.8747 14.2018 16.8747 16.2019H19.008C19.008 15.1676 19.7696 14.4781 20.5504 14.4781V12.4012V12.3991ZM16.8747 16.2039C16.8747 18.2123 18.4448 20.0046 20.5504 20.0046V17.9277C19.7888 17.9277 19.008 17.2341 19.008 16.2039H16.8747ZM20.5504 20.0046C22.6837 20.0046 24.224 18.206 24.224 16.2039H22.0907C22.0907 17.2424 21.3291 17.9277 20.5504 17.9277V20.0046ZM24.224 16.2039C24.224 14.2039 22.6859 12.4033 20.5504 12.4033V14.4801C21.3291 14.4801 22.0907 15.1697 22.0907 16.2039H24.224ZM7.97867 7.14465C11.0571 5.51016 13.5659 4.74795 16.0064 4.74587C18.4491 4.74587 20.9515 5.50393 24.0235 7.14257L25.0475 5.32324C21.8005 3.58906 18.9355 2.66693 16.0064 2.66901C13.0773 2.66901 10.2101 3.59321 6.95894 5.32117L7.97867 7.14465Z" fill="#B5B3B3"/>
</svg>
