<svg width="327" height="313" viewBox="0 0 327 313" fill="none" xmlns="http://www.w3.org/2000/svg">
<path d="M1.32495 4.01684C1.32495 2.08384 2.89195 0.516846 4.82495 0.516846H322.825C324.758 0.516846 326.325 2.08385 326.325 4.01685V264.52C326.325 266.273 325.029 267.755 323.293 267.989L5.2931 310.909C3.19312 311.193 1.32495 309.56 1.32495 307.441V4.01684Z" stroke="white"/>
<path d="M279.264 83.5405L243.325 95.0138V0.516846H312.325V94.9938L279.581 83.5449L279.423 83.4897L279.264 83.5405Z" stroke="white"/>
<path d="M185.788 130.817L218.036 117.856L223.983 132.653L191.736 145.615L185.788 130.817Z" fill="#FCB9C1"/>
<path d="M176.894 110.911V126.856H142.144V115.113V110.911H176.894Z" fill="#D7FCC5"/>
<path d="M159.519 150.972C163.302 150.972 166.358 154.04 166.358 157.811C166.358 161.594 163.302 164.65 159.519 164.65C155.748 164.65 152.68 161.594 152.68 157.811C152.68 154.028 155.736 150.972 159.519 150.972Z" fill="#D7FCC5"/>
<path d="M118.103 131.391H131.436V166.745H118.103V131.391Z" fill="#FFEFAE"/>
<path d="M72.6448 123.431H107.394V139.376H72.6448V123.431Z" fill="#FCB9C1"/>
<path d="M209.13 95.6926L218.027 117.812L185.791 130.775L176.894 108.656L209.13 95.6926Z" fill="#3564AA"/>
<path d="M223.978 132.599L256.005 212.227L223.769 225.191L191.742 145.574L223.978 132.599Z" fill="#3564AA"/>
<path d="M176.894 108.656V110.911H142.144V87.8431H176.894V108.656Z" fill="#988FD1"/>
<path d="M176.894 126.856V225.191H142.144V126.856H176.894ZM166.358 157.811C166.358 154.028 163.302 150.972 159.519 150.972C155.748 150.972 152.68 154.04 152.68 157.811C152.68 161.594 155.748 164.65 159.519 164.65C163.29 164.65 166.358 161.581 166.358 157.811Z" fill="#988FD1"/>
<path d="M142.144 126.856V225.191H107.395V139.364V123.431V115.113H142.144V126.856ZM131.436 166.745V131.391H118.103V166.745H131.436Z" fill="#9C5933"/>
<path d="M72.6448 139.364H107.394V225.191H72.6448V139.364Z" fill="#3564AA"/>
<path d="M107.394 115.113V123.431H72.6448V99.5865H107.394V115.113Z" fill="#3564AA"/>
<path d="M107.395 227.778H72.6449C71.2155 227.778 70.0571 226.62 70.0571 225.191V99.5865C70.0571 98.1571 71.2155 96.9988 72.6449 96.9988H107.395C108.824 96.9988 109.982 98.1571 109.982 99.5865V225.191C109.982 226.62 108.824 227.778 107.395 227.778ZM75.2326 222.603H104.807V102.174H75.2326V222.603Z" fill="#1C1E24"/>
<path d="M107.395 126.018H72.6449C71.2155 126.018 70.0571 124.86 70.0571 123.431C70.0571 122.001 71.2155 120.843 72.6449 120.843H107.395C108.824 120.843 109.982 122.001 109.982 123.431C109.982 124.86 108.824 126.018 107.395 126.018Z" fill="#1C1E24"/>
<path d="M107.395 141.964H72.6449C71.2155 141.964 70.0571 140.805 70.0571 139.376C70.0571 137.947 71.2155 136.788 72.6449 136.788H107.395C108.824 136.788 109.982 137.947 109.982 139.376C109.982 140.805 108.824 141.964 107.395 141.964Z" fill="#1C1E24"/>
<path d="M96.6862 192.141H83.3531C81.9237 192.141 80.7654 190.983 80.7654 189.554C80.7654 188.124 81.9237 186.966 83.3531 186.966H96.6862C98.1156 186.966 99.2739 188.124 99.2739 189.554C99.2739 190.983 98.1156 192.141 96.6862 192.141Z" fill="#1C1E24"/>
<path d="M223.769 227.778C222.746 227.778 221.773 227.162 221.366 226.152L174.491 109.617C173.961 108.286 174.602 106.783 175.92 106.253L208.156 93.2896C208.797 93.0309 209.499 93.0432 210.14 93.3143C210.769 93.5854 211.274 94.0906 211.52 94.7314L258.395 211.266C258.654 211.907 258.642 212.609 258.371 213.25C258.1 213.878 257.594 214.384 256.954 214.63L224.718 227.593C224.422 227.717 224.089 227.778 223.769 227.778ZM180.258 110.098L225.198 221.826L252.628 210.785L207.688 99.0566L180.258 110.098Z" fill="#1C1E24"/>
<path d="M185.791 133.363C184.768 133.363 183.795 132.747 183.388 131.736C182.858 130.405 183.499 128.902 184.817 128.372L217.066 115.409C218.396 114.879 219.9 115.52 220.43 116.838C220.96 118.169 220.319 119.672 219 120.202L186.752 133.178C186.432 133.301 186.111 133.363 185.791 133.363Z" fill="#1C1E24"/>
<path d="M191.743 148.162C190.72 148.162 189.746 147.546 189.34 146.536C188.81 145.205 189.451 143.701 190.769 143.171L223.005 130.208C224.336 129.678 225.839 130.319 226.369 131.638C226.899 132.968 226.258 134.472 224.94 135.002L192.704 147.965C192.384 148.101 192.063 148.162 191.743 148.162Z" fill="#1C1E24"/>
<path d="M221.908 190.108C220.886 190.108 219.912 189.492 219.505 188.482C218.976 187.151 219.616 185.647 220.935 185.118L230.275 181.359C231.606 180.829 233.109 181.47 233.639 182.789C234.169 184.119 233.528 185.623 232.21 186.153L222.869 189.911C222.561 190.047 222.229 190.108 221.908 190.108Z" fill="#1C1E24"/>
<path d="M142.144 117.701H107.395C105.965 117.701 104.807 116.542 104.807 115.113C104.807 113.684 105.965 112.525 107.395 112.525H142.144C143.574 112.525 144.732 113.684 144.732 115.113C144.732 116.542 143.574 117.701 142.144 117.701Z" fill="#1C1E24"/>
<path d="M131.436 190.958H118.103C116.673 190.958 115.515 189.8 115.515 188.371C115.515 186.941 116.673 185.783 118.103 185.783H131.436C132.865 185.783 134.024 186.941 134.024 188.371C134.024 189.8 132.865 190.958 131.436 190.958Z" fill="#1C1E24"/>
<path d="M131.436 206.165H118.103C116.673 206.165 115.515 205.006 115.515 203.577C115.515 202.147 116.673 200.989 118.103 200.989H131.436C132.865 200.989 134.024 202.147 134.024 203.577C134.024 205.006 132.865 206.165 131.436 206.165Z" fill="#1C1E24"/>
<path d="M131.436 169.332H118.103C116.673 169.332 115.515 168.174 115.515 166.745V131.391C115.515 129.962 116.673 128.803 118.103 128.803H131.436C132.865 128.803 134.024 129.962 134.024 131.391V166.745C134.024 168.174 132.865 169.332 131.436 169.332ZM120.691 164.157H128.848V133.979H120.691V164.157Z" fill="#1C1E24"/>
<path d="M176.894 227.778H142.144C140.715 227.778 139.556 226.62 139.556 225.191V87.8431C139.556 86.4137 140.715 85.2554 142.144 85.2554H176.894C178.323 85.2554 179.482 86.4137 179.482 87.8431V225.203C179.482 226.62 178.323 227.778 176.894 227.778ZM144.732 222.603H174.306V90.4309H144.732V222.603Z" fill="#1C1E24"/>
<path d="M176.894 113.499H142.144C140.715 113.499 139.556 112.34 139.556 110.911C139.556 109.482 140.715 108.323 142.144 108.323H176.894C178.323 108.323 179.482 109.482 179.482 110.911C179.482 112.34 178.323 113.499 176.894 113.499Z" fill="#1C1E24"/>
<path d="M176.894 129.444H142.144C140.715 129.444 139.556 128.286 139.556 126.856C139.556 125.427 140.715 124.269 142.144 124.269H176.894C178.323 124.269 179.482 125.427 179.482 126.856C179.482 128.286 178.323 129.444 176.894 129.444Z" fill="#1C1E24"/>
<path d="M142.144 227.778H107.395C105.965 227.778 104.807 226.62 104.807 225.191C104.807 223.761 105.965 222.603 107.395 222.603H142.144C143.574 222.603 144.732 223.761 144.732 225.191C144.732 226.62 143.574 227.778 142.144 227.778Z" fill="#1C1E24"/>
<path d="M166.186 188.469H152.853C151.423 188.469 150.265 187.311 150.265 185.882C150.265 184.452 151.423 183.294 152.853 183.294H166.186C167.615 183.294 168.773 184.452 168.773 185.882C168.773 187.311 167.615 188.469 166.186 188.469Z" fill="#1C1E24"/>
<path d="M166.186 203.675H152.853C151.423 203.675 150.265 202.517 150.265 201.088C150.265 199.658 151.423 198.5 152.853 198.5H166.186C167.615 198.5 168.773 199.658 168.773 201.088C168.773 202.517 167.615 203.675 166.186 203.675Z" fill="#1C1E24"/>
<path d="M159.519 167.237C154.319 167.237 150.092 163.011 150.092 157.811C150.092 152.611 154.319 148.384 159.519 148.384C164.719 148.384 168.946 152.611 168.946 157.811C168.946 163.011 164.719 167.237 159.519 167.237ZM159.519 153.559C157.178 153.559 155.268 155.469 155.268 157.811C155.268 160.152 157.178 162.062 159.519 162.062C161.86 162.062 163.77 160.152 163.77 157.811C163.77 155.469 161.86 153.559 159.519 153.559Z" fill="#1C1E24"/>
</svg>
