<svg width="326" height="312" viewBox="0 0 326 312" fill="none" xmlns="http://www.w3.org/2000/svg">
<path d="M0.5 3.99999C0.5 2.067 2.067 0.5 4 0.5H322C323.933 0.5 325.5 2.067 325.5 4V264.504C325.5 266.256 324.204 267.738 322.468 267.972L4.46815 310.892C2.36817 311.176 0.5 309.543 0.5 307.424V3.99999Z" stroke="white"/>
<path d="M278.439 83.5237L242.5 94.9969V0.5H311.5V94.9769L278.756 83.528L278.598 83.4728L278.439 83.5237Z" stroke="white"/>
<path d="M118.331 179.694C118.331 179.694 120.072 192.999 117.555 198.755L122.915 199.224L123.128 178.076L118.331 179.694Z" fill="#E3E4E3"/>
<path d="M122.845 196.921C121.322 197.022 119.799 197.06 118.272 197.036C118.027 197.032 118.038 197.408 118.283 197.412C119.809 197.436 121.333 197.398 122.856 197.297C123.099 197.281 123.09 196.905 122.845 196.921Z" fill="#DDDBDB"/>
<path d="M122.799 194.926C121.436 194.989 120.073 195.052 118.71 195.116C118.466 195.127 118.476 195.502 118.721 195.491C120.084 195.428 121.447 195.365 122.81 195.302C123.054 195.291 123.045 194.915 122.799 194.926Z" fill="#DDDBDB"/>
<path d="M122.747 193.201C121.448 193.365 120.151 193.401 118.844 193.309C118.6 193.292 118.612 193.668 118.855 193.685C120.162 193.777 121.459 193.741 122.758 193.576C122.999 193.546 122.99 193.17 122.747 193.201Z" fill="#DDDBDB"/>
<path d="M123.079 190.814C121.752 191.002 120.422 191.106 119.081 191.128C118.836 191.133 118.846 191.508 119.092 191.504C120.432 191.482 121.763 191.377 123.09 191.19C123.329 191.156 123.321 190.78 123.079 190.814Z" fill="#DDDBDB"/>
<path d="M122.916 188.661C121.616 188.738 120.316 188.778 119.014 188.782C118.768 188.782 118.779 189.158 119.024 189.157C120.327 189.153 121.627 189.113 122.927 189.037C123.171 189.022 123.161 188.646 122.916 188.661Z" fill="#DDDBDB"/>
<path d="M122.747 186.51C121.483 186.628 120.216 186.701 118.946 186.728C118.701 186.733 118.712 187.109 118.957 187.104C120.227 187.076 121.493 187.004 122.758 186.886C123 186.863 122.991 186.487 122.747 186.51Z" fill="#DDDBDB"/>
<path d="M122.781 184.061C121.424 184.22 120.064 184.326 118.698 184.379C118.657 184.38 118.626 184.395 118.599 184.413L118.602 184.458C118.62 184.551 118.634 184.645 118.646 184.739C118.665 184.746 118.683 184.756 118.709 184.754C120.075 184.701 121.435 184.595 122.792 184.437C123.033 184.408 123.025 184.033 122.781 184.061Z" fill="#DDDBDB"/>
<path d="M122.904 181.641C121.574 181.714 120.243 181.786 118.912 181.858C118.668 181.871 118.678 182.247 118.923 182.234C120.254 182.161 121.584 182.089 122.915 182.017C123.159 182.004 123.15 181.628 122.904 181.641Z" fill="#DDDBDB"/>
<path d="M209.27 226.336L112.724 226.118C112.601 226.118 112.501 226.022 112.501 225.905L112.524 210.873C112.524 210.756 112.624 210.661 112.748 210.661L209.293 210.879C209.417 210.88 209.517 210.975 209.516 211.093L209.493 226.124C209.493 226.242 209.393 226.337 209.27 226.336Z" fill="#F6DA83"/>
<path d="M129.724 226.16L119.576 226.137L119.6 210.677L129.748 210.7L129.724 226.16Z" fill="#6F6154"/>
<path d="M134.332 226.158L132.076 226.153L132.099 210.692L134.356 210.697L134.332 226.158Z" fill="#6F6154"/>
<path d="M142.92 218.447C142.918 219.959 141.627 221.182 140.037 221.179C138.448 221.175 137.161 219.946 137.163 218.434C137.166 216.921 138.456 215.698 140.046 215.702C141.635 215.705 142.922 216.934 142.92 218.447Z" fill="#6F6154"/>
<path d="M210.112 211.052L113.566 210.833C113.443 210.833 113.343 210.738 113.343 210.62L113.361 198.578C113.362 198.46 113.462 198.365 113.586 198.365L210.131 198.584C210.254 198.584 210.354 198.679 210.354 198.797L210.336 210.839C210.336 210.957 210.235 211.052 210.112 211.052Z" fill="#B0A7A7"/>
<path d="M125.683 201.914L125.674 207.319L128.73 204.918L125.683 201.914Z" fill="#EFE4E5"/>
<path d="M129.555 202.448L129.549 206.811L132.016 204.873L129.555 202.448Z" fill="#EFE4E5"/>
<path d="M119.004 210.834L118.565 210.833L118.585 198.365L119.023 198.366L119.004 210.834Z" fill="#EFE4E5"/>
<path d="M121.06 210.85L120.621 210.849L120.64 198.381L121.079 198.382L121.06 210.85Z" fill="#EFE4E5"/>
<path d="M151.478 62.2234L144.435 64.0302L144.668 62.5082C145.371 57.9271 145.026 52.3104 144.002 47.769L144.309 47.5142L151.036 42.9806L151.478 62.2234Z" fill="#ECE0E0"/>
<path d="M190.714 62.8929L150.967 61.3378L144.272 63.9478L187.31 65.7205L190.714 62.8929Z" fill="#9EB79C"/>
<path d="M144.197 63.5347C145.375 63.3386 146.529 62.7158 147.671 62.2402C148.743 61.7942 149.813 61.3489 150.881 60.9048C151.05 60.8344 151.129 61.3414 150.96 61.4122C149.807 61.8924 148.652 62.3737 147.495 62.8562C146.41 63.3079 145.323 63.8752 144.206 64.0619C144.03 64.0912 144.022 63.5638 144.197 63.5347Z" fill="#B1C1BB"/>
<path d="M150.968 43.6739C148.547 44.8837 146.172 46.4157 143.857 48.2761C143.617 48.4687 143.393 47.7712 143.635 47.5767C145.985 45.69 148.391 44.1265 150.848 42.9002C151.101 42.7741 151.22 43.5478 150.968 43.6739Z" fill="#B1C1BB"/>
<path d="M190.736 44.7271L150.707 42.9648L150.947 47.1091C151.142 50.4607 151.194 53.8155 151.105 57.1418L150.966 61.3397L190.713 62.8949L190.75 62.6486C191.622 56.8536 191.62 50.6212 190.736 44.7271Z" fill="#C3C19F"/>
<path d="M156.731 43.6482C156.663 43.1188 155.784 43.1421 155.853 43.6764C156.573 49.258 156.494 54.8722 155.598 60.4299C155.513 60.9585 156.367 61.1564 156.453 60.6248C157.36 54.9958 157.46 49.303 156.731 43.6482Z" fill="#5C84AD"/>
<path d="M185.921 45.1362C185.847 44.6072 184.969 44.6379 185.043 45.1717C185.815 50.7471 185.788 56.3617 184.943 61.9268C184.863 62.456 185.718 62.6468 185.799 62.1144C186.655 56.478 186.702 50.7845 185.921 45.1362Z" fill="#5C84AD"/>
<path d="M130.177 85.2246L114.528 87.6331L115.045 85.5931C116.6 79.4518 115.827 71.92 113.545 65.8286L114.228 65.4874L129.167 59.422L130.177 85.2246Z" fill="#ECD7C4"/>
<path d="M217.383 86.2088L129.06 84.0448L114.186 87.531L209.823 89.9937L217.383 86.2088Z" fill="#B7A656"/>
<path d="M113.996 86.9703C116.613 86.7095 119.177 85.8767 121.715 85.2413C124.096 84.6453 126.473 84.0505 128.845 83.4571C129.22 83.3628 129.398 84.0432 129.021 84.1374C126.461 84.7792 123.894 85.4222 121.323 86.0668C118.914 86.6703 116.499 87.4289 114.016 87.677C113.626 87.7162 113.608 87.0088 113.996 86.9703Z" fill="#C1A185"/>
<path d="M129.055 60.3524C123.676 61.9698 118.401 64.0191 113.259 66.5091C112.726 66.7669 112.228 65.8311 112.766 65.5708C117.985 63.0459 123.329 60.9542 128.788 59.3148C129.35 59.1463 129.616 60.1837 129.055 60.3524Z" fill="#C1A185"/>
<path d="M217.388 61.8486L128.437 59.4062L128.976 64.9635C129.413 69.4577 129.534 73.9563 129.34 78.4163L129.038 84.0449L217.361 86.2092L217.443 85.8789C219.374 78.1104 219.359 69.7538 217.388 61.8488V61.8486Z" fill="#C4B756"/>
<path d="M203.364 198.436L121.665 198.251L121.693 179.961L203.392 180.146L203.471 180.396C205.318 186.288 205.281 192.568 203.364 198.436Z" fill="#D46981"/>
<path d="M141.436 198.293L130.021 198.267L130.049 179.977L141.464 180.002L141.436 198.293Z" fill="#849197"/>
<path d="M121.992 160.593L106.838 158.479L107.386 160.094C109.034 164.949 108.487 170.841 106.47 175.551L107.128 175.831L121.587 180.899L121.992 160.593Z" fill="#ECD7C4"/>
<path d="M210.504 161.059L120.925 161.529L106.504 158.571L202.517 157.819L210.504 161.059Z" fill="#D3B192"/>
<path d="M106.345 159.006C108.86 159.246 111.344 159.937 113.803 160.474C116.115 160.978 118.426 161.482 120.738 161.987C121.105 162.067 121.262 161.53 120.895 161.45C118.398 160.905 115.901 160.361 113.405 159.816C111.071 159.307 108.733 158.676 106.346 158.449C105.972 158.413 105.973 158.97 106.345 159.006Z" fill="#C1A185"/>
<path d="M121.445 180.175C116.233 178.788 111.132 177.071 106.167 175.022C105.654 174.81 105.205 175.528 105.723 175.742C110.759 177.821 115.924 179.573 121.21 180.98C121.755 181.126 121.989 180.32 121.445 180.175Z" fill="#C1A185"/>
<path d="M210.468 181.108L120.89 180.906L121.287 176.567C121.609 173.046 121.626 169.507 121.339 165.983L120.92 161.524L210.499 161.054L210.585 161.329C212.611 167.789 212.57 174.674 210.468 181.108Z" fill="#E7C5A3"/>
<path d="M201.862 159.754L116.969 159.562C116.846 159.562 116.746 159.466 116.746 159.349L116.774 140.821C116.775 140.703 116.875 140.608 116.998 140.608L201.891 140.8C202.015 140.801 202.114 140.896 202.114 141.014L202.086 159.542C202.086 159.659 201.986 159.754 201.862 159.754Z" fill="#5C84AD"/>
<path d="M213.633 127.406L108.681 127.169C108.558 127.168 108.458 127.073 108.458 126.955L108.478 113.544C108.479 113.426 108.579 113.331 108.702 113.332L213.654 113.569C213.778 113.569 213.878 113.665 213.878 113.782L213.857 127.194C213.857 127.311 213.757 127.406 213.633 127.406Z" fill="#76A192"/>
<path d="M196.818 113.79L129.919 113.638L129.961 86.3062L196.86 86.4575L197.101 87.9796C198.374 96.0327 198.361 104.221 197.064 112.268L196.818 113.79Z" fill="#2AB352"/>
<path d="M150.606 113.494L137.332 113.464L137.373 86.4945L150.647 86.5245L150.606 113.494Z" fill="#339A58"/>
<path d="M147.615 113.496L140.162 113.479L140.203 86.5103L147.656 86.5272L147.615 113.496Z" fill="#A9F8AB"/>
<path d="M197.777 93.6542L150.64 89.6856L150.645 86.5393L147.672 86.5326L140.219 86.5156L137.37 86.5092L137.367 88.5679L129.953 87.9438L129.956 86.4631L196.854 86.6145L197.777 93.6542Z" fill="#2CA855"/>
<path d="M150.638 89.6709L147.666 89.4205L147.67 86.5179L150.643 86.5245L150.638 89.6709ZM140.214 88.7931L137.365 88.5532L137.368 86.4945L140.217 86.5009L140.214 88.7931Z" fill="#0E5833"/>
<path d="M147.648 89.4298L140.195 88.8024L140.199 86.5103L147.652 86.5272L147.648 89.4298Z" fill="#24A451"/>
<path d="M163.327 56.4201H163.316C160.814 56.4143 158.789 54.4806 158.793 52.1006C158.797 49.724 160.822 47.8015 163.318 47.8015H163.329C165.831 47.807 167.856 49.741 167.852 52.121C167.848 54.4973 165.823 56.4201 163.327 56.4201Z" fill="#749BA8"/>
<path d="M118.985 120.132C118.084 119.067 117.05 118.162 115.873 117.38C115.409 117.071 114.968 117.794 115.429 118.1C116.432 118.767 117.306 119.542 118.093 120.423C117.241 121.354 116.328 122.221 115.341 123.027C114.911 123.377 115.534 123.968 115.961 123.619C117.053 122.729 118.056 121.767 118.984 120.722C119.15 120.536 119.145 120.321 118.985 120.132Z" fill="#E1D6BC"/>
<path d="M124.109 119.965C123.512 119.1 122.398 118.357 121.612 117.643C121.202 117.271 120.58 117.86 120.99 118.232C121.653 118.835 122.607 119.465 123.189 120.178C122.854 120.562 122.29 120.92 121.936 121.227C121.465 121.637 120.994 122.047 120.523 122.457C120.106 122.821 120.727 123.412 121.143 123.049C121.708 122.557 122.274 122.065 122.839 121.573C123.257 121.21 123.827 120.86 124.109 120.386C124.183 120.261 124.195 120.089 124.109 119.965Z" fill="#E1D6BC"/>
<path d="M126.862 116.751C126.459 116.373 125.836 116.962 126.24 117.34C126.482 117.568 126.956 118.353 126.362 118.46C125.808 118.561 126.041 119.367 126.594 119.266C127.148 119.166 127.49 118.691 127.514 118.172C127.538 117.635 127.255 117.12 126.862 116.751Z" fill="#E1D6BC"/>
<path d="M130.922 120.668C130.58 120.957 130.048 120.97 129.75 120.624C129.136 119.911 130.042 119.034 130.841 119.444C130.926 119.487 131.008 119.501 131.085 119.495C131.283 119.883 131.293 120.354 130.922 120.668ZM131.726 118.88C131.602 118.712 131.414 118.671 131.247 118.707C130.512 118.352 129.577 118.488 129.036 119.101C128.501 119.707 128.578 120.637 129.126 121.214C129.733 121.852 130.755 121.866 131.444 121.337C132.227 120.735 132.285 119.639 131.726 118.88Z" fill="#E1D6BC"/>
<path d="M190.565 159.763L189.553 159.761L189.582 140.734L190.594 140.736L190.565 159.763Z" fill="#E1D6BC"/>
<path d="M194.676 159.779L193.664 159.777L193.693 140.75L194.705 140.752L194.676 159.779Z" fill="#E1D6BC"/>
<path d="M204.384 184.183C204.312 183.769 204.232 183.356 204.142 182.944C204.237 183.367 204.326 183.803 204.384 184.183Z" fill="#E3E3E3"/>
<path d="M121.687 181.375L121.598 180.905C121.598 180.905 121.599 180.904 121.6 180.903L121.688 180.903L121.687 181.375Z" fill="#CACBCA"/>
<path d="M204.37 184.205L141.434 182.051L141.436 180.948L203.655 181.089C203.656 181.092 203.907 181.984 204.124 182.946C204.214 183.358 204.295 183.771 204.367 184.185C204.368 184.192 204.369 184.198 204.37 184.205ZM130.02 181.66L121.665 181.375V181.375L121.666 180.903L130.021 180.922L130.02 181.66Z" fill="#BD5E73"/>
<path d="M141.435 182.048L130.021 181.657L130.022 180.919L141.437 180.945L141.435 182.048Z" fill="#768186"/>
<path d="M203.677 181.089L141.459 180.948L130.043 180.922L121.688 180.903L121.601 180.903H121.598L203.677 181.089Z" fill="#CEAF91"/>
<path d="M208.175 140.989L103.223 140.752C103.1 140.752 103 140.656 103 140.539L103.02 127.127C103.021 127.01 103.121 126.915 103.245 126.915L208.196 127.152C208.32 127.152 208.42 127.248 208.419 127.366L208.399 140.777C208.399 140.895 208.299 140.99 208.175 140.989Z" fill="#6F6154"/>
<path d="M116.75 136.694L115.163 136.69L115.171 131.029L116.759 131.033L116.75 136.694Z" fill="#E1D6BC"/>
<path d="M121.737 136.694L120.149 136.69L120.158 131.029L121.745 131.033L121.737 136.694Z" fill="#E1D6BC"/>
<path d="M214.031 127.149L108.774 127.048C108.465 127.048 108.234 126.776 108.301 126.488L213.77 125.816L214.031 127.149Z" fill="#EFE4E5"/>
<path d="M213.66 126.552L108.403 126.451C108.094 126.452 107.864 126.179 107.931 125.892L213.399 125.219L213.66 126.552Z" fill="#E3D9D9"/>
<path d="M125.15 88.5083C125.15 88.5083 128.261 105.846 124.529 113.001L129.894 113.643L129.936 86.4631L125.15 88.5083Z" fill="#E3E4E3"/>
</svg>
