<svg width="321" height="321" viewBox="0 0 321 321" fill="none" xmlns="http://www.w3.org/2000/svg">
<g clip-path="url(#clip0)">
<path d="M191.24 258.665L120.443 187.868C116.006 183.43 116.001 176.252 120.429 171.824C122.18 170.073 124.367 169.013 126.642 168.655C130.107 168.095 133.793 169.155 136.475 171.837L118.244 153.609C116.028 151.39 114.913 148.488 114.916 145.588C114.916 144.985 114.965 144.378 115.06 143.773C115.425 141.496 116.481 139.313 118.232 137.562C119.966 135.829 122.114 134.778 124.357 134.406C127.413 133.896 130.631 134.641 133.198 136.642L126.26 129.703C124.043 127.487 122.929 124.573 122.929 121.673C122.927 121.058 122.978 120.436 123.081 119.829C123.443 117.569 124.499 115.396 126.243 113.652C127.994 111.901 130.178 110.843 132.463 110.483C135.929 109.925 139.614 110.985 142.296 113.667L150.241 121.612C147.562 118.933 146.499 115.244 147.057 111.779C147.417 109.504 148.47 107.322 150.226 105.566C154.651 101.143 161.837 101.145 166.272 105.58L212.28 151.591L212.41 151.407C214.741 149.075 217.489 147.417 220.42 146.428C227.657 143.991 235.982 145.656 241.754 151.429L263.207 172.882C267.332 177.007 269.644 182.593 269.653 188.417L269.666 201.837C269.67 208.109 272.166 214.127 276.609 218.569L281.394 223.352L226.675 278.069L220.562 271.956C216.497 267.89 211.09 265.441 205.356 265.067C200.03 264.716 195.017 262.444 191.24 258.665Z" fill="#FECBAA"/>
<path d="M223.119 281.622L285.224 219.517C287.272 217.469 290.59 217.469 292.635 219.517L314.755 241.634C316.8 243.681 316.8 246.997 314.755 249.045L252.647 311.152C250.6 313.197 247.284 313.197 245.236 311.152L223.119 289.033C221.072 286.988 221.072 283.669 223.119 281.622Z" fill="#FD5959"/>
<path d="M129.75 258.672L200.547 187.875C204.984 183.438 204.987 176.26 200.559 171.832C198.808 170.078 196.621 169.02 194.348 168.66C190.88 168.102 187.197 169.162 184.513 171.844L202.743 153.613C204.96 151.397 206.074 148.492 206.072 145.593C206.072 144.99 206.025 144.383 205.927 143.781C205.562 141.503 204.507 139.321 202.756 137.57C201.024 135.836 198.874 134.785 196.631 134.413C193.574 133.904 190.356 134.648 187.79 136.647L194.728 129.708C196.944 127.492 198.058 124.58 198.058 121.68C198.061 121.063 198.009 120.444 197.907 119.836C197.544 117.576 196.489 115.401 194.745 113.66C192.994 111.909 190.809 110.848 188.527 110.491C185.059 109.932 181.376 110.99 178.691 113.672L170.747 121.617C173.426 118.94 174.489 115.252 173.93 111.784C173.573 109.511 172.517 107.329 170.761 105.573C166.336 101.148 159.151 101.153 154.718 105.585L108.708 151.595L108.578 151.414C106.246 149.083 103.499 147.425 100.567 146.435C93.3327 143.996 85.006 145.664 79.2336 151.436L57.7825 172.89C53.6583 177.014 51.344 182.6 51.3366 188.424L51.3219 201.845C51.3195 208.119 48.8239 214.134 44.3814 218.577L39.5959 223.36L94.3123 278.076L100.428 271.963C104.493 267.898 109.9 265.449 115.634 265.074C120.958 264.724 125.971 262.449 129.75 258.672Z" fill="#FECBAA"/>
<path d="M97.8708 281.629L35.7633 219.522C33.7159 217.474 30.3974 217.474 28.3525 219.522L6.2328 241.641C4.18786 243.686 4.18786 247.005 6.2328 249.052L68.3403 311.157C70.3877 313.205 73.7037 313.205 75.7511 311.157L97.8708 289.04C99.9158 286.993 99.9158 283.674 97.8708 281.629Z" fill="#483037"/>
<path d="M205.775 89.0006V189.122C205.775 195.399 200.703 200.476 194.439 200.476C191.963 200.476 189.668 199.68 187.804 198.326C184.958 196.268 183.102 192.916 183.102 189.122V214.903C183.102 218.038 181.836 220.879 179.786 222.929C179.36 223.355 178.897 223.749 178.4 224.107C176.531 225.461 174.244 226.257 171.768 226.257C169.316 226.257 167.053 225.48 165.202 224.158C162.682 222.358 160.933 219.556 160.532 216.326V226.139C160.532 229.274 159.258 232.12 157.208 234.17C156.777 234.608 156.3 235.01 155.798 235.367C153.941 236.709 151.661 237.5 149.195 237.5C146.719 237.5 144.424 236.702 142.556 235.343C139.71 233.286 137.854 229.933 137.854 226.139V214.903C137.854 218.689 135.997 222.052 133.151 224.107C131.29 225.461 129 226.257 126.519 226.257C120.262 226.257 115.183 221.173 115.183 214.903V149.835L114.962 149.874C111.666 149.874 108.548 149.102 105.779 147.728C98.9384 144.337 94.2289 137.271 94.2289 129.108V98.7698C94.2289 92.9386 96.5432 87.3524 100.655 83.2258L110.135 73.7284C114.568 69.2883 117.056 63.2686 117.056 56.9868V50.2226H194.439V58.8677C194.439 64.618 196.532 70.1724 200.319 74.4925C203.838 78.504 205.775 83.6592 205.775 89.0006Z" fill="#FEDFC5"/>
<path d="M200.559 171.832C198.808 170.078 196.621 169.02 194.348 168.66C190.88 168.102 187.197 169.162 184.515 171.844L202.746 153.613C204.962 151.397 206.074 148.492 206.074 145.593C206.074 144.99 206.025 144.383 205.927 143.781C205.565 141.5 204.509 139.321 202.758 137.57C201.024 135.836 198.874 134.785 196.631 134.413C193.577 133.904 190.359 134.648 187.792 136.646L194.73 129.708C196.946 127.492 198.058 124.58 198.058 121.68C198.063 121.063 198.009 120.444 197.906 119.836C197.544 117.576 196.488 115.401 194.747 113.66C192.996 111.909 190.809 110.848 188.527 110.491C185.059 109.932 181.375 110.99 178.694 113.672L170.749 121.617C173.426 118.94 174.491 115.252 173.93 111.784C173.573 109.511 172.517 107.329 170.761 105.573C166.336 101.148 159.15 101.153 154.718 105.585L108.708 151.595L108.578 151.414C106.246 149.083 103.499 147.425 100.567 146.435C97.0968 145.265 93.3743 145.052 89.8036 145.772C92.6812 150.119 96.7001 153.724 101.603 156.156C102.962 156.829 104.356 157.395 105.776 157.853V214.903C105.776 226.35 115.08 235.661 126.517 235.661C127.891 235.661 129.248 235.529 130.568 235.267C132.045 238.284 134.244 240.939 137.019 242.944C138.74 244.198 140.619 245.158 142.595 245.824L200.544 187.873C204.984 183.438 204.989 176.26 200.559 171.832Z" fill="#FFAE85"/>
<path d="M215.172 189.122V149.083C214.2 149.764 213.272 150.54 212.402 151.409L212.275 151.591L166.265 105.58C161.832 101.148 154.644 101.143 150.221 105.568C148.465 107.324 147.41 109.504 147.05 111.779C146.491 115.247 147.557 118.935 150.233 121.612L142.289 113.667C139.607 110.986 135.924 109.928 132.456 110.486C130.173 110.843 127.986 111.904 126.235 113.655C124.494 115.396 123.439 117.571 123.074 119.831C122.973 120.439 122.919 121.058 122.924 121.676C122.924 124.575 124.036 127.487 126.255 129.703L133.193 136.642C130.624 134.643 127.406 133.899 124.352 134.408C122.109 134.78 119.958 135.831 118.225 137.565C116.474 139.316 115.418 141.496 115.056 143.776C114.958 144.378 114.909 144.985 114.909 145.588C114.909 148.488 116.02 151.392 118.237 153.609L136.467 171.839C133.786 169.157 130.102 168.097 126.635 168.655C124.362 169.015 122.175 170.073 120.424 171.824C115.996 176.255 116.001 183.433 120.438 187.871L167.867 235.299C169.14 235.541 170.443 235.663 171.763 235.663C176.157 235.663 180.359 234.302 183.895 231.738C184.799 231.086 185.651 230.359 186.43 229.58C190.346 225.666 192.501 220.455 192.501 214.905V209.794C193.141 209.853 193.785 209.882 194.434 209.882C205.868 209.88 215.172 200.569 215.172 189.122Z" fill="#FFAE85"/>
<path d="M205.775 89.0006V189.122C205.775 195.399 200.703 200.476 194.439 200.476C194.27 200.476 194.088 200.476 193.905 200.464C191.642 200.358 189.543 199.587 187.819 198.333C187.811 198.333 187.811 198.326 187.804 198.326C184.958 196.268 183.102 192.916 183.102 189.122V214.903C183.102 218.038 181.836 220.879 179.786 222.929C179.36 223.355 178.897 223.749 178.4 224.107C176.531 225.461 174.244 226.257 171.768 226.257C169.316 226.257 167.053 225.48 165.202 224.158C162.682 222.358 160.933 219.556 160.532 216.326V226.139C160.532 229.274 159.258 232.12 157.208 234.17C156.777 234.608 156.3 235.01 155.798 235.367C153.941 236.709 151.661 237.5 149.195 237.5C146.719 237.5 144.424 236.702 142.556 235.343C139.71 233.286 137.854 229.933 137.854 226.139V214.903C137.854 218.689 135.997 222.052 133.151 224.107C131.29 225.461 129 226.257 126.519 226.257C120.262 226.257 115.183 221.173 115.183 214.903V149.835L114.962 149.874C111.666 149.874 108.548 149.102 105.779 147.728C98.9384 144.337 94.2289 137.271 94.2289 129.108V98.7698C94.2289 92.9386 96.5432 87.3524 100.655 83.2258L110.135 73.7284C112.876 70.9806 114.877 67.6328 115.998 63.9837C116.701 61.7281 117.056 59.3501 117.056 56.9868V50.2226H194.439V58.8677C194.439 60.8048 194.644 62.8498 195.185 64.7184C196.087 68.3111 197.843 71.6639 200.319 74.4925C203.806 78.4746 205.775 83.696 205.775 89.0006Z" fill="#FEDFC5"/>
<path d="M205.775 89.0006V189.122C205.775 195.399 200.703 200.476 194.439 200.476C194.27 200.476 194.088 200.476 193.905 200.464C191.642 200.358 189.543 199.587 187.819 198.333L188.012 101.853C188.012 101.27 187.88 100.349 187.635 99.1763C183.31 78.1048 165.523 63.9837 144.01 63.9837H115.998C116.701 61.7281 117.056 59.3501 117.056 56.9868V50.2226H194.439V58.8677C194.439 60.8048 194.644 62.8498 195.186 64.7184C196.087 68.3111 197.843 71.6639 200.319 74.4925C203.806 78.4746 205.775 83.696 205.775 89.0006Z" fill="#FECBAA"/>
<path d="M199.466 50.2251H111.632C108.739 50.2251 106.393 47.8789 106.393 44.9841V13.7051C106.393 10.8103 108.739 8.46413 111.632 8.46413H199.466C202.359 8.46413 204.705 10.8103 204.705 13.7051V44.9841C204.705 47.8789 202.359 50.2251 199.466 50.2251Z" fill="#2C53DC"/>
<path d="M131.885 284.565L130.942 289.172L131.851 284.561C129.304 284.059 126.83 285.717 126.328 288.264C125.826 290.813 127.484 293.284 130.034 293.786C130.041 293.789 130.112 293.801 130.119 293.803C130.418 293.86 130.715 293.889 131.008 293.889C133.22 293.889 135.191 292.322 135.62 290.068C136.11 287.517 134.437 285.053 131.885 284.565Z" fill="#282D2F"/>
<path d="M167.837 286.077L168.305 290.754L167.822 286.079C165.239 286.343 163.36 288.653 163.627 291.237C163.874 293.656 165.917 295.459 168.297 295.459C168.459 295.459 168.623 295.449 168.785 295.434L168.915 295.42C171.486 295.118 173.311 292.799 173.024 290.228C172.735 287.659 170.408 285.807 167.837 286.077Z" fill="#282D2F"/>
<path d="M149.837 286.669C149.837 286.669 149.771 286.667 149.768 286.667C147.177 286.549 145.012 288.562 144.895 291.156C144.779 293.749 146.817 295.946 149.411 296.064C149.484 296.069 149.555 296.069 149.629 296.069C152.127 296.069 154.208 294.102 154.321 291.58C154.438 288.986 152.433 286.787 149.837 286.669Z" fill="#282D2F"/>
<path d="M114.517 279.787L114.458 279.765C112.014 278.889 109.349 280.167 108.472 282.611C107.593 285.055 108.891 287.759 111.335 288.638C111.862 288.827 112.398 288.915 112.925 288.915C114.852 288.915 116.662 287.722 117.35 285.802C118.229 283.358 116.961 280.664 114.517 279.787Z" fill="#282D2F"/>
<path d="M185.583 282.785L186.741 287.343L185.568 282.79C183.053 283.436 181.539 286.001 182.186 288.516C182.732 290.637 184.642 292.047 186.736 292.047C187.126 292.047 187.52 291.998 187.914 291.895C187.934 291.891 188.017 291.869 188.039 291.864C190.535 291.183 191.994 288.619 191.328 286.118C190.662 283.62 188.088 282.134 185.583 282.785Z" fill="#282D2F"/>
<path d="M202.581 276.856L204.445 281.171L202.567 276.861C200.186 277.899 199.096 280.669 200.132 283.05C200.904 284.82 202.633 285.876 204.448 285.876C205.072 285.876 205.711 285.748 206.321 285.484C206.341 285.474 206.417 285.442 206.436 285.432C208.795 284.367 209.835 281.605 208.782 279.241C207.729 276.876 204.952 275.815 202.581 276.856Z" fill="#282D2F"/>
<path d="M96.5555 62.5069C97.3098 62.5069 98.0764 62.3257 98.7842 61.9485C101.076 60.7265 101.941 57.8782 100.719 55.5859C99.4968 53.2961 96.651 52.4267 94.3587 53.6512L94.3024 53.6806C92.0126 54.9027 91.1725 57.7362 92.3946 60.0285C93.2371 61.6106 94.873 62.5069 96.5555 62.5069Z" fill="#282D2F"/>
<path d="M42.165 115.026C42.863 115.391 43.6099 115.565 44.3471 115.565C46.0394 115.565 47.6753 114.649 48.5154 113.045L48.5986 112.881C49.7448 110.55 48.7848 107.731 46.4533 106.587C44.1389 105.446 41.3421 106.386 40.1813 108.686C38.9813 110.983 39.8678 113.821 42.165 115.026Z" fill="#282D2F"/>
<path d="M35.5452 132.716C36.0448 132.885 36.5518 132.966 37.0538 132.966C39.013 132.966 40.8425 131.729 41.5062 129.77L41.5674 129.583C42.3315 127.103 40.938 124.47 38.4547 123.708C35.9934 122.949 33.3803 124.316 32.5941 126.765C31.7688 129.221 33.0888 131.886 35.5452 132.716Z" fill="#282D2F"/>
<path d="M51.4419 98.5762C52.2771 99.1836 53.2444 99.4775 54.2045 99.4775C55.6567 99.4775 57.0919 98.804 58.0103 97.5403L58.0715 97.457C59.5801 95.346 59.0878 92.4169 56.9817 90.9083C54.873 89.3973 51.9342 89.8822 50.4207 91.9884L54.2094 94.7754L50.406 92.0079C48.8778 94.1092 49.3431 97.0505 51.4419 98.5762Z" fill="#282D2F"/>
<path d="M80.5927 72.6631C81.5797 72.6631 82.574 72.352 83.4238 71.7055C85.5202 70.1724 85.9732 67.2311 84.4401 65.1347C82.9046 63.0383 79.9633 62.5853 77.8694 64.1184L77.7518 64.2041C75.6848 65.7739 75.2734 68.7299 76.8432 70.7993C77.769 72.019 79.1723 72.6631 80.5927 72.6631Z" fill="#282D2F"/>
<path d="M31.3476 204.027C31.9697 206.047 33.826 207.343 35.8343 207.343C36.2922 207.343 36.76 207.274 37.2204 207.132C39.689 206.375 41.0825 203.76 40.3429 201.286C39.6352 198.818 37.0759 197.368 34.5852 198.046C32.0799 198.729 30.6031 201.316 31.2864 203.821C31.3011 203.87 31.3329 203.978 31.3476 204.027Z" fill="#282D2F"/>
<path d="M66.3883 85.0552C67.6104 85.0552 68.8325 84.5825 69.7557 83.6421C71.5901 81.8053 71.5901 78.8273 69.7557 76.9929C67.919 75.1562 64.9409 75.1562 63.1042 76.9929L63.0258 77.0713C61.2086 78.9252 61.2453 81.8983 63.0993 83.7155C64.0127 84.6119 65.2005 85.0552 66.3883 85.0552Z" fill="#282D2F"/>
<path d="M36.5445 183.526C36.2139 180.971 33.88 179.159 31.3232 179.463C28.7468 179.771 26.9051 182.11 27.2112 184.689L27.2382 184.878C27.581 187.214 29.5868 188.889 31.8815 188.889C32.1069 188.889 32.3371 188.872 32.5697 188.838C35.129 188.465 36.9045 186.085 36.5445 183.526Z" fill="#282D2F"/>
<path d="M30.6373 170.059C30.6863 170.059 30.7329 170.061 30.7794 170.061C33.3117 170.061 35.4032 168.045 35.4766 165.496L35.4815 165.295C35.4815 162.697 33.3754 160.593 30.7794 160.593C28.2006 160.593 26.1091 162.665 26.0772 165.234C26.0087 167.825 28.0487 169.983 30.6373 170.059Z" fill="#282D2F"/>
<path d="M31.6684 151.201C31.95 151.25 32.2268 151.275 32.5035 151.275C34.737 151.275 36.7183 149.675 37.1273 147.4C37.1396 147.332 37.1493 147.263 37.1591 147.194C37.5387 144.625 35.7632 142.235 33.1917 141.858C30.6521 141.481 28.274 143.227 27.865 145.759C27.4193 148.311 29.119 150.743 31.6684 151.201Z" fill="#282D2F"/>
<path d="M253.477 100.06C254.388 101.383 255.853 102.091 257.347 102.091C258.265 102.091 259.196 101.821 260.009 101.26C262.147 99.791 262.688 96.8619 261.219 94.7215L257.31 97.337L261.204 94.6994C259.744 92.5492 256.82 91.9883 254.672 93.4455C252.522 94.9027 251.961 97.8268 253.418 99.9771L253.477 100.06Z" fill="#282D2F"/>
<path d="M277.49 147.378C274.909 147.667 273.052 149.996 273.344 152.577L273.368 152.781C273.704 155.124 275.717 156.817 278.019 156.817C278.239 156.817 278.465 156.802 278.69 156.77C281.239 156.405 283.017 154.057 282.687 151.51C282.39 148.936 280.054 147.089 277.49 147.378Z" fill="#282D2F"/>
<path d="M269.555 134.109L269.575 134.17C270.177 136.22 272.051 137.548 274.083 137.548C274.522 137.548 274.968 137.486 275.411 137.354C277.904 136.622 279.329 134.009 278.597 131.516L278.577 131.455C277.845 128.961 275.232 127.536 272.739 128.271C270.248 129.003 268.823 131.616 269.555 134.109Z" fill="#282D2F"/>
<path d="M262.913 116.528C263.734 118.195 265.411 119.168 267.155 119.168C267.848 119.168 268.553 119.013 269.217 118.685C271.546 117.539 272.514 114.737 271.365 112.406L267.104 114.392L271.36 112.396C270.258 110.045 267.459 109.034 265.108 110.136C262.757 111.238 261.743 114.037 262.845 116.388L262.913 116.528Z" fill="#282D2F"/>
<path d="M241.634 85.376C242.554 86.3164 243.772 86.7866 244.991 86.7866C246.179 86.7866 247.367 86.3409 248.283 85.4421C250.124 83.6396 250.166 80.6934 248.391 78.837C246.63 76.939 243.661 76.8239 241.756 78.5823C239.848 80.3432 239.731 83.3188 241.492 85.2266L241.634 85.376Z" fill="#282D2F"/>
<path d="M279.018 167.012C276.434 166.946 274.272 168.971 274.181 171.555C274.064 174.129 276.04 176.321 278.616 176.465C278.707 176.47 278.793 176.473 278.883 176.473C281.359 176.473 283.434 174.535 283.573 172.03L283.581 171.837C283.654 169.243 281.612 167.088 279.018 167.012Z" fill="#282D2F"/>
<path d="M211.564 62.2865L211.677 62.3477C212.378 62.72 213.129 62.8963 213.869 62.8963C215.542 62.8963 217.16 61.9951 218.01 60.4154C219.235 58.1354 218.373 55.2847 216.1 54.0504L213.825 58.1648L216.085 54.0406C213.808 52.7916 210.95 53.6267 209.701 55.9043C208.454 58.1795 209.287 61.04 211.564 62.2865Z" fill="#282D2F"/>
<path d="M227.468 72.5994L227.542 72.6557C228.392 73.2998 229.389 73.6108 230.38 73.6108C231.801 73.6108 233.204 72.9692 234.13 71.7496C235.7 69.6801 235.293 66.7315 233.226 65.1617L233.194 65.1396C231.135 63.5575 228.184 63.9445 226.602 66.0041C225.019 68.0638 225.409 71.0173 227.468 72.5994Z" fill="#282D2F"/>
<path d="M318.098 238.198L296.025 216.086C294.146 214.205 291.651 213.169 288.994 213.169C286.339 213.169 283.841 214.205 281.965 216.086L281.453 216.598L280.003 215.148C278.213 213.353 276.827 211.264 275.886 208.989C275.803 208.688 275.693 208.394 275.551 208.117C274.831 206.094 274.456 203.941 274.456 201.73V195.475C274.885 195.7 275.352 195.864 275.854 195.95C276.124 195.997 276.391 196.019 276.655 196.019C278.886 196.019 280.86 194.427 281.274 192.164C281.776 189.622 280.128 187.151 277.583 186.641C276.464 186.418 275.357 186.612 274.427 187.116C274.138 180.435 271.407 174.195 266.656 169.434L245.242 147.983C240.437 143.171 234.047 140.521 227.251 140.521C221.99 140.521 216.98 142.115 212.753 145.066L210.48 142.781V89.0007C210.48 82.5181 208.126 76.2632 203.855 71.3921C200.816 67.9292 199.143 63.4817 199.143 58.8677V54.9272H199.467C204.948 54.9272 209.407 50.4676 209.407 44.9842V13.7051C209.407 8.22169 204.948 3.76199 199.467 3.76199H111.632C106.151 3.76199 101.691 8.22169 101.691 13.7051V44.9842C101.691 50.4676 106.151 54.9272 111.632 54.9272H112.357V56.9893C112.357 62.0588 110.385 66.8247 106.807 70.4076L97.3271 79.905C92.2968 84.9451 89.5269 91.6432 89.5269 98.7699V129.106C89.5269 133.228 90.5164 137.119 92.2576 140.568C86.0224 140.928 80.2108 143.526 75.7585 147.983L54.3441 169.434C49.3138 174.474 46.5439 181.175 46.5439 188.299V201.73C46.5439 206.799 44.5749 211.565 40.9969 215.148L39.5642 216.583C39.5568 216.588 39.5519 216.593 39.547 216.598L39.0376 216.086C37.1592 214.205 34.6637 213.169 32.0064 213.169C29.3517 213.169 26.8537 214.205 24.9777 216.086L2.90211 238.198C-0.967369 242.075 -0.967369 248.384 2.90211 252.261L10.4623 259.831C12.2966 261.67 25.6632 271.596 27.5 269.762C29.3368 267.925 18.9531 255.026 17.1163 253.186L9.55859 245.614C9.34552 245.401 9.34552 245.056 9.55859 244.843L31.6342 222.73C31.8399 222.525 32.1754 222.522 32.3811 222.73L36.2188 226.575H36.2212L88.6233 279.068L94.4936 284.95C94.7067 285.164 94.7067 285.509 94.4936 285.722L72.4204 307.834C72.2123 308.042 71.8767 308.042 71.671 307.834L18.8718 255.354C17.0375 253.515 25.6169 264.68 23.7801 266.514C21.9409 268.351 8.62795 257.991 10.4623 259.831L65.017 314.478C66.893 316.359 69.391 317.395 72.0482 317.395C74.7029 317.395 77.1985 316.359 79.0769 314.478L101.15 292.366C105.02 288.492 105.02 282.183 101.15 278.306L100.91 278.066L103.695 275.277C106.947 272.017 111.267 270.058 115.859 269.762C122.322 269.343 128.403 266.585 132.98 261.998L153.258 241.676C159.107 240.14 163.659 235.377 164.896 229.411C166.98 230.403 169.309 230.961 171.768 230.961C180.611 230.961 187.807 223.759 187.807 214.903V203.738C189.83 204.661 192.075 205.18 194.441 205.18C203.285 205.18 210.477 197.978 210.477 189.122V156.114L224.941 170.649C225.86 171.572 227.067 172.033 228.275 172.033C229.475 172.033 230.675 171.577 231.593 170.664C233.432 168.832 233.44 165.856 231.608 164.015L219.549 151.897C221.883 150.611 224.513 149.925 227.251 149.925C231.532 149.925 235.558 151.596 238.585 154.63L259.999 176.079C263.257 179.343 265.052 183.683 265.052 188.299V201.73C265.052 209.31 267.998 216.434 273.347 221.792L274.806 223.254L267.986 230.087L226.734 271.41L224.435 269.105C224.41 269.083 224.388 269.059 224.363 269.037L223.959 268.63C219.091 263.754 212.623 260.823 205.751 260.377C201.57 260.105 197.637 258.322 194.662 255.344L179.211 239.976C177.369 238.145 174.391 238.152 172.559 239.994C170.73 241.835 170.737 244.813 172.579 246.643L188.02 261.998C192.597 266.585 198.678 269.343 205.143 269.762C209.733 270.058 214.053 272.017 217.305 275.274L217.533 275.502C217.656 275.642 217.785 275.771 217.923 275.894L220.09 278.064L219.85 278.306C215.98 282.183 215.98 288.489 219.85 292.366L241.923 314.478C243.802 316.359 246.297 317.395 248.954 317.395C251.609 317.395 254.107 316.359 255.985 314.478L318.098 252.258C321.967 248.381 321.967 242.075 318.098 238.198ZM277.608 191.441L277.52 191.427L276.663 191.253L277.608 191.441ZM126.324 255.354C123.363 258.322 119.43 260.105 115.252 260.377C108.377 260.823 101.909 263.754 97.0406 268.63L94.2658 271.41L91.7678 268.907C91.736 268.875 91.7041 268.841 91.6723 268.811L46.1937 223.254L47.6533 221.792C53.002 216.434 55.9482 209.31 55.9482 201.73V188.299C55.9482 183.683 57.7409 179.343 61.0006 176.079L82.4149 154.63C85.442 151.596 89.4682 149.925 93.7491 149.925C96.4945 149.925 99.1345 150.616 101.476 151.911L89.3971 164.01C87.5628 165.847 87.5653 168.825 89.402 170.659C90.3204 171.575 91.5229 172.033 92.7254 172.033C93.9303 172.033 95.1352 171.572 96.0536 170.654L110.481 156.2V214.903C110.481 223.759 117.676 230.961 126.52 230.961C129.013 230.961 131.374 230.388 133.48 229.37C134.435 234.03 137.413 237.958 141.449 240.197L126.324 255.354ZM201.076 189.125C201.076 192.793 198.098 195.779 194.441 195.779C190.782 195.779 187.807 192.793 187.807 189.125V136.674C187.807 134.078 185.703 131.971 183.105 131.971C180.506 131.971 178.402 134.078 178.402 136.674V214.906C178.402 218.574 175.427 221.557 171.768 221.557C168.484 221.557 165.758 219.152 165.232 216.005V136.62C165.232 134.021 163.128 131.918 160.529 131.918C159.694 131.918 158.908 132.138 158.227 132.52C156.741 133.311 155.729 134.874 155.729 136.674V214.903C155.729 215.501 155.764 216.086 155.827 216.666V226.142C155.827 229.81 152.852 232.796 149.193 232.796C145.536 232.796 142.561 229.81 142.561 226.142V136.563C142.561 133.967 140.455 131.861 137.859 131.861C135.26 131.861 133.154 133.967 133.154 136.563V214.903C133.154 218.572 130.178 221.557 126.522 221.557C122.863 221.557 119.888 218.572 119.888 214.903V127.436C119.888 124.837 117.781 122.731 115.185 122.731C112.587 122.731 110.483 124.837 110.483 127.436V143.614C110.089 143.742 109.707 143.92 109.352 144.155C103.271 141.87 98.9312 135.988 98.9312 129.106V98.7699C98.9312 94.1535 100.726 89.8138 103.984 86.5492L113.464 77.0518C118.815 71.6933 121.761 64.5691 121.761 56.9893V54.9272H158.227C160.826 54.9272 148.588 52.8211 148.588 50.2251C148.588 47.6267 195 45.5229 131.214 45.5229H111.632C111.336 45.5229 111.096 45.2805 111.096 44.9842V13.7051C111.096 13.4087 111.336 13.1663 111.632 13.1663H199.464C199.763 13.1663 200.003 13.4087 200.003 13.7051V44.9842C200.003 45.2829 199.763 45.5229 199.464 45.5229H153.29C150.694 45.5229 148.588 47.6267 148.588 50.2251C148.588 52.8211 150.694 54.9272 153.29 54.9272H189.739V58.8677C189.739 65.7642 192.24 72.4134 196.782 77.5955C199.55 80.7499 201.076 84.8006 201.076 89.0007V189.125ZM311.441 245.614L249.329 307.834C249.226 307.94 249.101 307.991 248.954 307.991C248.81 307.991 248.685 307.94 248.58 307.834L226.506 285.722C226.293 285.509 226.293 285.164 226.506 284.95L230.06 281.39L230.062 281.387L266.12 245.269L288.619 222.73C288.825 222.522 289.16 222.522 289.366 222.73L311.441 244.843C311.654 245.056 311.654 245.401 311.441 245.614Z" fill="#282D2F"/>
<path d="M126.519 24.3289C123.759 24.3289 121.514 26.5796 121.514 29.3446C121.514 32.112 123.759 34.3602 126.519 34.3602C129.282 34.3602 131.528 32.112 131.528 29.3446C131.528 26.5796 129.282 24.3289 126.519 24.3289Z" fill="#282D2F"/>
<path d="M290.531 238.673C287.768 238.673 285.523 240.924 285.523 243.689C285.523 246.454 287.768 248.704 290.531 248.704C293.291 248.704 295.537 246.454 295.537 243.689C295.537 240.924 293.291 238.673 290.531 238.673Z" fill="#282D2F"/>
<path d="M78.3592 286.645C78.3592 283.88 76.1134 281.629 73.3534 281.629C70.5909 281.629 68.3451 283.88 68.3451 286.645C68.3451 289.41 70.5909 291.66 73.3534 291.66C76.1134 291.66 78.3592 289.41 78.3592 286.645Z" fill="#282D2F"/>
</g>
<defs>
<clipPath id="clip0">
<rect width="321" height="321" fill="white"/>
</clipPath>
</defs>
</svg>
